<?xml version="1.0" standalone="no"?>
<!DOCTYPE svg PUBLIC "-//W3C//DTD SVG 20010904//EN"
 "http://www.w3.org/TR/2001/REC-SVG-20010904/DTD/svg10.dtd">
<svg version="1.0" xmlns="http://www.w3.org/2000/svg"
 width="20.000000pt" height="20.000000pt" viewBox="0 0 20.000000 20.000000"
 preserveAspectRatio="xMidYMid meet">

<g transform="translate(0.000000,20.000000) scale(0.100000,-0.100000)"
fill="#000000" stroke="none">
<path d="M50 181 c0 -5 -8 -11 -18 -13 -15 -4 -19 -14 -18 -44 1 -22 7 -39 13
-39 7 0 18 -6 25 -13 17 -17 35 -15 42 4 3 8 10 13 15 10 5 -3 14 1 21 9 10
12 10 15 0 15 -8 0 -9 10 -5 30 6 26 4 30 -14 30 -12 0 -21 5 -21 10 0 6 -9
10 -20 10 -11 0 -20 -4 -20 -9z m48 -54 c2 -9 -4 -20 -12 -23 -21 -8 -46 13
-39 32 8 20 47 13 51 -9z"/>
<path d="M139 73 c-22 -6 -21 -51 1 -58 27 -9 50 5 50 30 0 18 -23 41 -33 34
-1 -1 -9 -3 -18 -6z m31 -28 c0 -8 -7 -15 -15 -15 -8 0 -15 7 -15 15 0 8 7 15
15 15 8 0 15 -7 15 -15z"/>
</g>
</svg>
