<?xml version="1.0" standalone="no"?>
<!DOCTYPE svg PUBLIC "-//W3C//DTD SVG 20010904//EN"
 "http://www.w3.org/TR/2001/REC-SVG-20010904/DTD/svg10.dtd">
<svg version="1.0" xmlns="http://www.w3.org/2000/svg"
 width="20.000000pt" height="20.000000pt" viewBox="0 0 20.000000 20.000000"
 preserveAspectRatio="xMidYMid meet">

<g transform="translate(0.000000,20.000000) scale(0.100000,-0.100000)"
fill="#000000" stroke="none">
<path d="M109 177 c-15 -8 -25 -23 -27 -42 -2 -16 -18 -43 -37 -62 -33 -33
-38 -63 -9 -63 7 0 29 14 47 30 19 17 43 30 54 30 24 0 53 30 53 54 0 16 -3
15 -26 -3 -21 -16 -30 -18 -40 -10 -20 16 -17 36 7 52 27 19 10 29 -22 14z"/>
</g>
</svg>
